<?xml version="1.0" encoding="utf-8"?>
<!-- Generator: Adobe Illustrator 25.4.1, SVG Export Plug-In . SVG Version: 6.00 Build 0)  -->
<svg version="1.1" xmlns="http://www.w3.org/2000/svg" xmlns:xlink="http://www.w3.org/1999/xlink" x="0px" y="0px"
	 viewBox="0 0 1920 1080" style="enable-background:new 0 0 1920 1080;" xml:space="preserve">
<style type="text/css">
	.st0{opacity:0.2;}
	.st1{fill:#919191;}
	.st2{opacity:0.2;fill:none;stroke:#919191;stroke-width:3;stroke-miterlimit:10;}
</style>
<g id="Layer_2">
</g>
<g id="Layer_1">
	<g class="st0">
		<path class="st1" d="M421.5,152c30.8,0,60.8,6,88.9,18c27.2,11.5,51.6,28,72.6,49c21,21,37.5,45.4,49,72.6
			c11.9,28.2,18,58.1,18,88.9s-6,60.8-18,88.9c-11.5,27.2-28,51.6-49,72.6s-45.4,37.5-72.6,49c-28.2,11.9-58.1,18-88.9,18
			s-60.8-6-88.9-18c-27.2-11.5-51.6-28-72.6-49c-21-21-37.5-45.4-49-72.6c-11.9-28.2-18-58.1-18-88.9s6-60.8,18-88.9
			c11.5-27.2,28-51.6,49-72.6c21-21,45.4-37.5,72.6-49C360.7,158,390.7,152,421.5,152 M421.5,149C293.6,149,190,252.6,190,380.5
			S293.6,612,421.5,612S653,508.4,653,380.5S549.4,149,421.5,149L421.5,149z"/>
	</g>
	<g class="st0">
		<path class="st1" d="M1615,326c38,0,69,31,69,69s-31,69-69,69s-69-31-69-69S1577,326,1615,326 M1615,323c-39.8,0-72,32.2-72,72
			s32.2,72,72,72s72-32.2,72-72S1654.8,323,1615,323L1615,323z"/>
	</g>
	<g class="st0">
		<path class="st1" d="M1053.5,683c33.4,0,60.5,27.1,60.5,60.5s-27.1,60.5-60.5,60.5c-33.4,0-60.5-27.1-60.5-60.5
			S1020.1,683,1053.5,683 M1053.5,680c-35.1,0-63.5,28.4-63.5,63.5s28.4,63.5,63.5,63.5s63.5-28.4,63.5-63.5S1088.6,680,1053.5,680
			L1053.5,680z"/>
	</g>
	<g class="st0">
		<path class="st1" d="M722,890c36.4,0,66,29.6,66,66s-29.6,66-66,66s-66-29.6-66-66S685.6,890,722,890 M722,887
			c-38.1,0-69,30.9-69,69s30.9,69,69,69s69-30.9,69-69S760.1,887,722,887L722,887z"/>
	</g>
	<g class="st0">
		<path class="st1" d="M100.5,689c34.5,0,62.5,28,62.5,62.5S135,814,100.5,814S38,786,38,751.5S66,689,100.5,689 M100.5,686
			C64.3,686,35,715.3,35,751.5S64.3,817,100.5,817s65.5-29.3,65.5-65.5S136.7,686,100.5,686L100.5,686z"/>
	</g>
	<g class="st0">
		<path class="st1" d="M1132.5,87c29.5,0,53.5,24,53.5,53.5s-24,53.5-53.5,53.5s-53.5-24-53.5-53.5S1103,87,1132.5,87 M1132.5,84
			c-31.2,0-56.5,25.3-56.5,56.5s25.3,56.5,56.5,56.5s56.5-25.3,56.5-56.5S1163.7,84,1132.5,84L1132.5,84z"/>
	</g>
	<line class="st2" x1="641.5" y1="308.5" x2="1079.8" y2="160.9"/>
	<line class="st2" x1="1543" y1="403" x2="653" y2="403"/>
	<line class="st2" x1="994.8" y1="719.2" x2="614.9" y2="507.7"/>
	<line class="st2" x1="522.5" y1="588.5" x2="687.5" y2="896.5"/>
	<line class="st2" x1="141.5" y1="700.5" x2="273.3" y2="553"/>
	<line class="st2" x1="1615" y1="467" x2="1615" y2="553"/>
	<line class="st2" x1="1053.5" y1="680" x2="1053.5" y2="613.5"/>
	<line class="st2" x1="791" y1="956" x2="860.7" y2="956"/>
	<line class="st2" x1="1108.2" y1="189" x2="1079.8" y2="248"/>
</g>
</svg>
