<?xml version="1.0" encoding="utf-8"?>
<!-- Generator: Adobe Illustrator 25.4.1, SVG Export Plug-In . SVG Version: 6.00 Build 0)  -->
<svg version="1.1" id="Layer_1" xmlns="http://www.w3.org/2000/svg" xmlns:xlink="http://www.w3.org/1999/xlink" x="0px" y="0px"
	 viewBox="0 0 1920 1080" style="enable-background:new 0 0 1920 1080;" xml:space="preserve">
<style type="text/css">
	.st0{opacity:0.55;}
	.st1{fill:#919191;}
	.st2{opacity:0.55;fill:none;stroke:#919191;stroke-width:3;stroke-miterlimit:10;}
</style>
<g class="st0">
	<path class="st1" d="M1496.5,133c30.8,0,60.8,6,88.9,18c27.2,11.5,51.6,28,72.6,49c21,21,37.5,45.4,49,72.6
		c11.9,28.2,18,58.1,18,88.9s-6,60.8-18,88.9c-11.5,27.2-28,51.6-49,72.6c-21,21-45.4,37.5-72.6,49c-28.2,11.9-58.1,18-88.9,18
		s-60.8-6-88.9-18c-27.2-11.5-51.6-28-72.6-49c-21-21-37.5-45.4-49-72.6c-11.9-28.2-18-58.1-18-88.9s6-60.8,18-88.9
		c11.5-27.2,28-51.6,49-72.6c21-21,45.4-37.5,72.6-49C1435.7,139,1465.7,133,1496.5,133 M1496.5,130
		c-127.9,0-231.5,103.6-231.5,231.5S1368.6,593,1496.5,593S1728,489.4,1728,361.5S1624.4,130,1496.5,130L1496.5,130z"/>
</g>
<g class="st0">
	<path class="st1" d="M303,307c38,0,69,31,69,69s-31,69-69,69s-69-31-69-69S265,307,303,307 M303,304c-39.8,0-72,32.2-72,72
		s32.2,72,72,72s72-32.2,72-72S342.8,304,303,304L303,304z"/>
</g>
<g class="st0">
	<path class="st1" d="M864.5,664c33.4,0,60.5,27.1,60.5,60.5S897.9,785,864.5,785S804,757.9,804,724.5S831.1,664,864.5,664
		 M864.5,661c-35.1,0-63.5,28.4-63.5,63.5s28.4,63.5,63.5,63.5s63.5-28.4,63.5-63.5S899.6,661,864.5,661L864.5,661z"/>
</g>
<g class="st0">
	<path class="st1" d="M1196,871c36.4,0,66,29.6,66,66s-29.6,66-66,66s-66-29.6-66-66S1159.6,871,1196,871 M1196,868
		c-38.1,0-69,30.9-69,69s30.9,69,69,69s69-30.9,69-69S1234.1,868,1196,868L1196,868z"/>
</g>
<g class="st0">
	<path class="st1" d="M1817.5,670c34.5,0,62.5,28,62.5,62.5s-28,62.5-62.5,62.5s-62.5-28-62.5-62.5S1783,670,1817.5,670 M1817.5,667
		c-36.2,0-65.5,29.3-65.5,65.5s29.3,65.5,65.5,65.5s65.5-29.3,65.5-65.5S1853.7,667,1817.5,667L1817.5,667z"/>
</g>
<g class="st0">
	<path class="st1" d="M785.5,68C815,68,839,92,839,121.5S815,175,785.5,175S732,151,732,121.5S756,68,785.5,68 M785.5,65
		c-31.2,0-56.5,25.3-56.5,56.5s25.3,56.5,56.5,56.5s56.5-25.3,56.5-56.5S816.7,65,785.5,65L785.5,65z"/>
</g>
<line class="st2" x1="1276.5" y1="289.5" x2="838.2" y2="141.9"/>
<line class="st2" x1="375" y1="384" x2="1265" y2="384"/>
<line class="st2" x1="923.2" y1="700.2" x2="1303.1" y2="488.7"/>
<line class="st2" x1="1395.5" y1="569.5" x2="1230.5" y2="877.5"/>
<line class="st2" x1="1776.5" y1="681.5" x2="1644.7" y2="534"/>
<line class="st2" x1="303" y1="448" x2="303" y2="534"/>
<line class="st2" x1="864.5" y1="661" x2="864.5" y2="594.5"/>
<line class="st2" x1="1127" y1="937" x2="1057.3" y2="937"/>
<line class="st2" x1="809.8" y1="170" x2="838.2" y2="229"/>
</svg>
